<?xml version="1.0" standalone="no"?>
<!DOCTYPE svg PUBLIC "-//W3C//DTD SVG 20010904//EN"
 "http://www.w3.org/TR/2001/REC-SVG-20010904/DTD/svg10.dtd">
<svg version="1.0" xmlns="http://www.w3.org/2000/svg"
 width="225.000000pt" height="225.000000pt" viewBox="0 0 225.000000 225.000000"
 preserveAspectRatio="xMidYMid meet">
<metadata>
Created by potrace 1.11, written by Peter Selinger 2001-2013
</metadata>
<g transform="translate(0.000000,225.000000) scale(0.100000,-0.100000)"
fill="#000000" stroke="none">
<path d="M952 1917 c-15 -16 -22 -36 -22 -65 l0 -42 -42 0 c-133 -1 -299 -59
-354 -122 -29 -33 -81 -154 -154 -355 l-23 -63 -56 0 c-50 0 -61 -4 -83 -27
-14 -16 -33 -50 -41 -77 -24 -71 -6 -96 69 -96 32 0 35 -2 27 -22 -4 -13 -8
-120 -8 -238 l0 -215 188 0 187 0 0 -42 0 -43 -169 0 -170 0 -20 26 -21 27 0
-105 c0 -96 2 -106 23 -126 22 -21 33 -22 173 -22 144 0 151 1 172 23 18 19
22 35 22 95 l0 72 475 0 475 0 0 -69 c0 -54 4 -74 21 -95 l20 -26 155 0 c198
0 194 -3 194 146 l0 107 -21 -27 -20 -26 -170 0 -169 0 0 43 0 42 187 0 188 0
0 215 c0 118 -4 225 -8 238 -8 20 -5 22 28 22 41 0 70 13 78 34 10 25 -21 111
-49 140 -23 22 -35 26 -84 26 l-57 0 -73 191 c-40 105 -83 205 -94 222 -41 59
-177 111 -328 123 l-78 7 0 43 c0 31 -6 50 -20 64 -18 18 -33 20 -173 20 -148
0 -154 -1 -175 -23z m358 -137 l0 -30 -185 0 -185 0 0 30 0 30 185 0 185 0 0
-30z m55 -120 c114 -11 208 -32 237 -54 28 -21 151 -347 136 -361 -10 -10
-219 -45 -325 -54 -257 -23 -596 -10 -798 30 -55 11 -102 22 -104 25 -8 8 38
153 82 258 38 92 43 100 82 117 40 18 133 35 225 42 105 8 363 6 465 -3z m552
-479 c39 -99 39 -101 14 -101 -15 0 -25 17 -47 83 -15 45 -29 88 -32 96 -3 8
1 12 14 9 13 -2 28 -29 51 -87z m-1350 -226 c130 -52 167 -76 171 -107 2 -20
-4 -31 -22 -43 -21 -14 -47 -16 -160 -13 -118 3 -138 6 -163 24 -23 18 -28 29
-31 73 -6 111 50 128 205 66z m1307 13 c21 -30 21 -121 1 -142 -26 -26 -85
-36 -206 -36 -98 0 -120 3 -139 18 -34 28 -21 66 33 94 165 85 281 109 311 66z"/>
</g>
</svg>
