<?xml version="1.0" standalone="no"?>
<!DOCTYPE svg PUBLIC "-//W3C//DTD SVG 20010904//EN"
 "http://www.w3.org/TR/2001/REC-SVG-20010904/DTD/svg10.dtd">
<svg version="1.0" xmlns="http://www.w3.org/2000/svg"
 width="767.000000pt" height="767.000000pt" viewBox="0 0 767.000000 767.000000"
 preserveAspectRatio="xMidYMid meet">
<metadata>
Created by potrace 1.11, written by Peter Selinger 2001-2013
</metadata>
<g transform="translate(0.000000,767.000000) scale(0.100000,-0.100000)"
fill="#000000" stroke="none">
<path d="M3315 6591 c-52 -24 -88 -59 -114 -109 -18 -36 -21 -59 -21 -171 0
-147 4 -141 -92 -141 -33 0 -77 -4 -97 -9 -20 -5 -99 -15 -176 -21 -135 -11
-406 -61 -429 -78 -6 -5 -33 -15 -61 -22 -27 -7 -54 -16 -60 -20 -5 -4 -28
-13 -50 -20 -22 -7 -51 -18 -65 -26 -14 -7 -60 -29 -102 -50 -43 -21 -78 -41
-78 -45 0 -3 -13 -12 -28 -18 -63 -26 -222 -204 -222 -247 0 -8 -4 -14 -9 -14
-5 0 -12 -12 -16 -27 -3 -15 -17 -50 -29 -78 -13 -27 -35 -84 -50 -125 -15
-41 -34 -88 -41 -105 -7 -16 -19 -48 -26 -70 -6 -22 -15 -44 -19 -50 -4 -5
-15 -35 -25 -65 -10 -30 -21 -59 -25 -65 -4 -5 -15 -37 -26 -70 -10 -33 -21
-62 -24 -65 -3 -3 -12 -25 -19 -50 -7 -25 -17 -49 -21 -55 -4 -5 -15 -32 -23
-60 -20 -64 -64 -181 -82 -222 -8 -17 -15 -37 -15 -45 0 -7 -9 -30 -20 -51
-11 -20 -20 -43 -20 -51 0 -11 -34 -15 -184 -18 l-184 -3 -71 -49 c-40 -27
-77 -58 -83 -70 -6 -11 -15 -24 -20 -27 -10 -6 -36 -73 -84 -217 -50 -151 -46
-202 23 -254 36 -28 37 -28 196 -28 l159 0 -5 -22 c-7 -27 -44 -135 -57 -163
-20 -46 -23 -142 -25 -777 l-3 -668 654 0 654 0 0 -165 0 -166 -557 3 c-549 3
-559 3 -603 25 -66 31 -119 95 -138 164 -6 22 -9 -84 -7 -311 2 -330 6 -400
26 -400 5 0 9 -7 9 -15 0 -17 68 -85 86 -85 7 0 14 -6 16 -12 4 -10 114 -13
509 -13 l504 0 45 30 c24 17 58 50 75 73 l30 44 3 249 3 249 1629 0 1630 0 0
-231 c0 -213 2 -234 21 -277 26 -58 43 -77 94 -111 l40 -26 504 0 c395 0 505
3 509 13 2 6 10 12 17 12 21 0 90 72 105 110 11 27 15 114 16 380 2 279 0 338
-9 308 -16 -51 -77 -120 -129 -149 l-43 -24 -562 -3 -563 -3 0 166 0 165 656
0 655 0 -4 678 c-4 644 -11 784 -35 802 -4 3 -16 32 -26 65 -10 33 -21 66 -23
73 -4 9 31 12 154 12 154 0 160 1 193 25 46 34 59 60 60 118 0 50 -51 220 -95
314 -27 57 -98 136 -133 147 -12 4 -22 11 -22 16 0 17 -106 30 -255 30 l-153
0 -13 38 c-6 20 -15 42 -19 47 -5 6 -13 30 -20 55 -7 25 -15 47 -20 50 -4 3
-14 28 -23 55 -19 61 -63 179 -82 220 -7 17 -17 44 -21 60 -4 17 -10 32 -14
35 -4 3 -14 28 -23 55 -18 58 -62 177 -81 220 -8 17 -17 41 -21 55 -4 14 -11
30 -15 35 -4 6 -13 28 -20 50 -7 22 -18 54 -25 70 -29 66 -67 162 -76 191 -19
64 -78 163 -124 209 -83 82 -239 185 -281 185 -8 0 -14 4 -14 8 0 5 -19 14
-42 21 -24 7 -56 19 -73 26 -28 13 -50 20 -195 59 -123 33 -202 47 -345 61
-82 9 -175 20 -206 25 -30 6 -73 10 -96 10 -22 0 -54 3 -71 6 l-31 6 -3 143
c-3 137 -4 143 -31 183 -16 22 -47 53 -69 69 l-41 28 -491 2 c-461 3 -493 2
-531 -16z m1155 -416 c6 -3 10 -52 10 -111 l0 -104 -650 0 -650 0 0 105 c0
124 -16 114 180 118 219 5 1099 -1 1110 -8z m-165 -479 c39 -3 153 -10 255
-16 101 -6 214 -16 250 -21 36 -5 94 -14 130 -19 140 -19 321 -60 375 -84 17
-8 47 -19 68 -26 20 -6 37 -15 37 -19 0 -4 15 -13 33 -20 34 -13 79 -68 92
-111 4 -14 15 -43 25 -65 54 -117 70 -154 70 -160 0 -3 11 -31 26 -62 14 -31
28 -69 31 -84 3 -16 9 -29 12 -29 4 0 15 -26 25 -57 10 -32 22 -62 26 -68 4
-5 13 -32 20 -60 7 -27 16 -54 20 -60 8 -10 33 -92 72 -230 10 -38 23 -79 28
-90 5 -11 14 -47 21 -80 7 -33 17 -66 22 -73 5 -7 8 -14 6 -16 -6 -6 -167 -46
-254 -63 -44 -8 -89 -19 -100 -24 -11 -5 -78 -18 -150 -30 -192 -30 -238 -37
-365 -49 -63 -6 -135 -15 -160 -20 -25 -5 -133 -14 -240 -19 -239 -14 -298
-18 -330 -26 -42 -10 -1013 -7 -1060 4 -25 5 -119 12 -210 16 -154 6 -302 18
-360 29 -14 3 -77 10 -140 16 -204 20 -605 89 -725 124 -27 8 -70 20 -94 26
l-43 11 7 47 c4 26 15 72 25 102 10 30 23 80 30 110 7 30 16 60 20 65 4 6 15
44 25 85 10 41 20 80 24 85 5 10 37 97 68 190 9 28 20 52 23 55 3 3 11 23 19
45 12 35 29 75 76 180 8 17 26 57 40 90 65 145 106 205 141 205 8 0 14 4 14 9
0 5 21 17 48 27 26 10 52 21 57 24 6 4 33 12 60 19 28 6 73 18 100 27 28 8 97
21 155 30 58 8 132 19 165 23 82 12 384 31 589 36 93 3 172 7 174 10 6 6 632
-1 727 -9z m2135 -1402 c7 -20 18 -48 26 -62 8 -15 14 -34 14 -42 0 -8 7 -28
15 -43 8 -16 22 -52 30 -79 8 -28 18 -56 23 -62 5 -6 14 -31 21 -56 7 -25 22
-64 32 -88 11 -23 22 -56 26 -72 3 -17 9 -30 13 -30 4 0 12 -18 18 -40 l10
-40 -87 0 -87 0 -16 58 c-20 71 -55 173 -78 232 -10 25 -21 62 -25 83 -4 20
-10 37 -14 37 -4 0 -13 24 -20 53 -7 28 -19 66 -26 82 -13 29 -35 94 -35 101
0 2 33 4 74 4 l74 0 12 -36z m-4789 -917 c18 -9 54 -21 79 -27 25 -6 54 -15
65 -20 11 -5 65 -27 121 -49 55 -22 114 -47 130 -56 16 -8 33 -15 37 -15 19 0
322 -146 349 -168 82 -66 98 -92 98 -161 0 -86 -22 -122 -100 -162 -44 -24
-50 -24 -400 -27 -337 -3 -526 6 -569 28 -9 4 -36 14 -61 20 -25 7 -57 21 -72
31 -14 11 -31 19 -37 19 -6 0 -15 9 -21 19 -5 11 -18 27 -27 37 -16 16 -18 40
-18 213 0 171 3 200 19 231 26 49 72 89 115 100 56 14 251 6 292 -13z m4647
13 c23 -6 56 -22 72 -36 52 -47 62 -83 68 -244 6 -189 -1 -249 -36 -288 -33
-36 -110 -79 -160 -88 -21 -4 -42 -10 -47 -15 -25 -19 -202 -29 -517 -29 -412
0 -459 8 -520 85 -34 43 -38 150 -8 185 12 14 25 30 28 35 16 23 93 73 182
117 52 26 98 48 102 48 5 0 38 14 75 31 171 78 212 95 258 109 22 7 49 18 60
25 11 6 45 18 75 25 30 7 60 16 65 21 32 24 225 37 303 19z"/>
</g>
</svg>
